<svg width="118" height="15" viewBox="0 0 118 15" fill="none" xmlns="http://www.w3.org/2000/svg">
<g clip-path="url(#clip0_313_1377)">
<path fill-rule="evenodd" clip-rule="evenodd" d="M97.3372 14.074V9.11342C97.3372 7.79158 96.9601 6.75956 96.2058 6.01736C95.4516 5.27516 94.2459 4.91145 92.5887 4.92622C91.8143 4.91351 91.0411 4.98628 90.2857 5.14297C90.1168 5.177 89.95 5.21893 89.7858 5.26859C88.7727 5.58632 88.5389 5.81785 88.8049 6.67499C88.8372 6.76859 88.8211 6.72179 88.856 6.81539C89.1489 7.70209 89.2 7.80061 90.3125 7.49519C90.4114 7.46778 90.5119 7.44558 90.6135 7.42869C91.1197 7.33132 91.6361 7.28507 92.1533 7.29076C92.9076 7.29076 93.4764 7.44264 93.8598 7.74642C94.0584 7.91445 94.2134 8.12116 94.3134 8.35133C94.4134 8.5815 94.4558 8.82929 94.4376 9.07647V9.23903C94.0513 9.11714 93.6562 9.02002 93.2551 8.94839C92.7872 8.86924 92.312 8.83211 91.8362 8.83755C91.25 8.83193 90.6655 8.89651 90.0975 9.02967C89.6143 9.14193 89.1585 9.33663 88.7539 9.60356C88.3822 9.85356 88.081 10.1812 87.8751 10.5592C87.6542 10.9911 87.5456 11.4641 87.558 11.941C87.5436 12.3953 87.6419 12.8468 87.8456 13.2612C88.0311 13.6217 88.2987 13.9417 88.6303 14.1996C88.9683 14.4602 89.3591 14.6569 89.7804 14.7784C90.2399 14.9087 90.7184 14.9735 91.1993 14.9706C91.8459 14.9867 92.4883 14.8715 93.0805 14.6331C93.5842 14.4168 94.0363 14.1113 94.4107 13.7341C94.4107 13.8597 94.4107 14.0026 94.4107 14.111C94.4177 14.2915 94.5014 14.4624 94.644 14.5871C94.7866 14.7118 94.9768 14.7805 95.1739 14.7784H96.5901C96.6909 14.7782 96.7906 14.7593 96.8832 14.7229C96.9758 14.6866 97.0595 14.6335 97.1292 14.5668C97.199 14.5001 97.2533 14.4212 97.2891 14.3349C97.3248 14.2485 97.3411 14.1564 97.3372 14.0642V14.074ZM94.4779 11.3302C94.4828 11.5676 94.4268 11.8028 94.3142 12.0167C94.2017 12.2306 94.0359 12.4173 93.8302 12.5617C93.3373 12.9032 92.7304 13.0773 92.113 13.0543C91.6899 13.0722 91.272 12.9633 90.9225 12.744C90.7732 12.6449 90.6533 12.5134 90.5735 12.3611C90.4937 12.2088 90.4567 12.0407 90.4657 11.872C90.4503 11.6699 90.4937 11.4677 90.5914 11.2859C90.6891 11.1042 90.8377 10.9495 91.022 10.8376C91.483 10.5861 92.0153 10.4661 92.5511 10.4927C92.9016 10.4912 93.2513 10.5251 93.5937 10.5937C93.8975 10.6536 94.1938 10.742 94.4779 10.8573V11.3302Z" fill="#4132E5"/>
<path fill-rule="evenodd" clip-rule="evenodd" d="M85.4378 12.4977L85.2765 12.3474C84.5563 11.7391 84.5778 11.6849 83.3255 12.3327C82.9182 12.5284 82.4632 12.6259 82.0034 12.6159C81.6205 12.6196 81.2412 12.5482 80.8908 12.4065C80.5661 12.2677 80.2761 12.069 80.039 11.8228C79.7999 11.5733 79.6173 11.2828 79.5015 10.9681C79.3745 10.6281 79.3109 10.2709 79.3134 9.91147V9.87452C79.3115 9.52482 79.3751 9.17741 79.5015 8.84743C79.6206 8.53638 79.8029 8.24887 80.039 8.00014C80.263 7.76124 80.5372 7.56608 80.8451 7.42625C81.1703 7.28345 81.5273 7.21178 81.8878 7.21689C82.3611 7.20226 82.8302 7.30253 83.2476 7.50753C84.387 8.09866 84.4247 8.15038 85.0804 7.53216L85.4002 7.21689C85.9564 6.61836 86.1445 6.28339 85.1556 5.66516C84.9187 5.516 84.6699 5.38344 84.4112 5.26861C83.622 4.95482 82.7664 4.8059 81.9066 4.83265C81.1331 4.82389 80.3657 4.96053 79.652 5.23413C78.993 5.48748 78.3956 5.85838 77.8945 6.32526C77.4002 6.79212 77.0095 7.34254 76.7443 7.94595C76.4639 8.57085 76.3223 9.24073 76.3278 9.91639V9.95334C76.3114 10.9429 76.6194 11.9143 77.2121 12.7416C77.8048 13.5689 78.6547 14.2141 79.652 14.5937C80.3532 14.8653 81.1078 15.0019 81.869 14.9952C82.7603 15.031 83.6473 14.8617 84.4488 14.5026C84.6948 14.3775 84.9326 14.2393 85.161 14.0888C86.0881 13.4336 86.0827 13.0691 85.4378 12.4977Z" fill="#4132E5"/>
<path fill-rule="evenodd" clip-rule="evenodd" d="M55.0568 10.1748C55.0669 9.48782 54.9627 8.80344 54.7478 8.14525C54.5547 7.52953 54.2315 6.9546 53.7965 6.45313C53.3607 5.95676 52.8099 5.55544 52.1841 5.27826C51.4629 4.97332 50.675 4.82417 49.881 4.8423C49.1697 4.83307 48.4642 4.9612 47.8104 5.21837C47.1567 5.47553 46.5693 5.85596 46.0866 6.33491C45.6184 6.80715 45.2535 7.35732 45.0116 7.9556C44.7511 8.58491 44.6199 9.25297 44.6247 9.92604V9.96299C44.6133 10.6639 44.755 11.3598 45.0412 12.0098C45.3064 12.6076 45.7014 13.1497 46.2021 13.6034C46.7068 14.0575 47.3089 14.4107 47.9704 14.6403C48.677 14.8879 49.4282 15.0116 50.1847 15.0049C51.0551 15.0211 51.9179 14.8525 52.7054 14.5122C53.0906 14.3383 53.4515 14.1225 53.7803 13.8694C53.8972 13.8033 53.9943 13.7115 54.0628 13.6024C54.1314 13.4933 54.1692 13.3703 54.173 13.2445C54.1767 13.1186 54.1462 12.9939 54.0842 12.8816C54.0222 12.7692 53.9307 12.6728 53.818 12.6009L53.5304 12.3546C52.8478 11.9285 52.7027 11.9186 51.918 12.3546C51.8057 12.4176 51.688 12.4719 51.566 12.5172C51.1413 12.6831 50.6839 12.7669 50.2223 12.7635C49.6116 12.781 49.0125 12.6073 48.5239 12.2709C48.0424 11.9116 47.7204 11.4037 47.6183 10.8423H53.5304C54.4629 10.8423 55.0541 10.8275 55.0622 10.1502L55.0568 10.1748ZM52.1169 9.13786H47.5646C47.6507 8.57777 47.9185 8.05433 48.3331 7.6354C48.5321 7.44742 48.7721 7.30002 49.0374 7.20283C49.3028 7.10564 49.5875 7.06084 49.873 7.07136C50.1571 7.05907 50.4408 7.10309 50.7047 7.20043C50.9686 7.29777 51.2064 7.44613 51.4021 7.6354C51.8048 8.05603 52.0546 8.58116 52.1169 9.13786Z" fill="#4132E5"/>
<path fill-rule="evenodd" clip-rule="evenodd" d="M28.1677 13.4653V13.3815C28.1677 12.2682 28.2027 12.2559 27.3777 12.4357C27.1474 12.4824 26.9121 12.5056 26.6763 12.5047C26.0295 12.5047 25.7052 12.1894 25.7035 11.5589V7.07858H27.4099C27.5146 7.08087 27.6188 7.06399 27.7164 7.0289C27.8139 6.99382 27.9028 6.94124 27.9779 6.87426C28.053 6.80728 28.1127 6.72724 28.1536 6.63882C28.1945 6.55041 28.2158 6.4554 28.2161 6.35937V5.43572C28.2161 5.33959 28.1951 5.24443 28.1544 5.15586C28.1136 5.0673 28.0539 4.98712 27.9787 4.92007C27.9036 4.85302 27.8145 4.80046 27.7168 4.7655C27.6191 4.73053 27.5147 4.71388 27.4099 4.71651H25.7035V2.74607C25.7035 2.55532 25.6208 2.37239 25.4736 2.23751C25.3265 2.10263 25.1269 2.02686 24.9188 2.02686H23.4703C23.2622 2.02686 23.0626 2.10263 22.9154 2.23751C22.7683 2.37239 22.6856 2.55532 22.6856 2.74607V12.0145C22.6698 12.4937 22.7472 12.9716 22.914 13.4259C23.0448 13.7673 23.2622 14.0755 23.5482 14.3249C23.8223 14.5613 24.1568 14.7307 24.521 14.8175C24.9339 14.9129 25.3583 14.9593 25.7841 14.9554C26.2378 14.963 26.6903 14.9108 27.1277 14.8003L27.3669 14.7288C28.1543 14.4579 28.1677 14.2633 28.1677 13.4653Z" fill="#4132E5"/>
<path fill-rule="evenodd" clip-rule="evenodd" d="M6.68017 1.94824C5.6778 1.94824 5.62137 2.10834 5.23708 2.93346L0.338107 13.4901C-0.269226 14.7783 -0.137548 14.7783 1.30285 14.7783H1.51515C2.59008 14.7783 2.83194 14.83 3.29684 13.7931L4.12722 11.9285H9.99632L10.824 13.7931C11.2862 14.8349 11.555 14.7955 12.6084 14.7783H12.8207C14.2611 14.7783 14.3847 14.7783 13.7854 13.4877L8.88646 2.93839C8.49948 2.10834 8.44574 1.95317 7.44337 1.95317L6.68017 1.94824ZM5.22096 9.44824L7.06177 5.32755L8.90258 9.44824H5.22096Z" fill="#4132E5"/>
<path d="M18.4509 4.69922H17.0025C16.5691 4.69922 16.2178 5.02122 16.2178 5.41843V14.0613C16.2178 14.4585 16.5691 14.7805 17.0025 14.7805H18.4509C18.8843 14.7805 19.2356 14.4585 19.2356 14.0613V5.41843C19.2356 5.02122 18.8843 4.69922 18.4509 4.69922Z" fill="#4132E5"/>
<path fill-rule="evenodd" clip-rule="evenodd" d="M31.9788 2.03906H37.5469C39.2023 2.03906 40.4904 2.40934 41.4113 3.1499C42.3321 3.89046 42.7916 4.92166 42.7899 6.2435C42.7899 7.16468 42.5964 8.05877 41.9675 8.80015C41.4121 9.45308 40.667 9.9491 39.8177 10.2312L41.9219 13.0662C42.6985 14.1031 43.2655 14.7903 41.9407 14.7903H40.6346C39.6699 14.7903 39.5301 14.6573 39.0007 13.9332L36.6493 10.7139H34.2469V14.0612C34.2455 14.2497 34.1638 14.4301 34.0192 14.5641C33.8745 14.698 33.6785 14.7748 33.4729 14.778H31.9788C31.7704 14.778 31.5706 14.7023 31.423 14.5675C31.2754 14.4327 31.1921 14.2497 31.1914 14.0588V2.75827C31.1921 2.5673 31.2754 2.38437 31.423 2.24956C31.5706 2.11476 31.7704 2.03906 31.9788 2.03906ZM34.2523 4.56862V8.22872H37.3534C37.9795 8.26679 38.5987 8.09133 39.0921 7.73611C39.2927 7.57243 39.4513 7.37001 39.5563 7.14343C39.6613 6.91685 39.7102 6.67174 39.6994 6.42576C39.723 6.16253 39.6775 5.89796 39.5667 5.65415C39.4559 5.41034 39.283 5.19437 39.0626 5.02429C38.5453 4.69537 37.9227 4.53493 37.2943 4.56862H34.2523Z" fill="#4132E5"/>
<path d="M59.6961 2.04395H58.2046C57.7712 2.04395 57.4199 2.36595 57.4199 2.76316V14.0661C57.4199 14.4633 57.7712 14.7853 58.2046 14.7853H59.6961C60.1294 14.7853 60.4808 14.4633 60.4808 14.0661V2.76316C60.4808 2.36595 60.1294 2.04395 59.6961 2.04395Z" fill="#4132E5"/>
<path fill-rule="evenodd" clip-rule="evenodd" d="M105.692 13.4653V13.3815C105.692 12.2682 105.73 12.2559 104.902 12.4333C104.673 12.482 104.438 12.506 104.203 12.5047C103.553 12.5047 103.23 12.1894 103.23 11.5589V7.07858H104.948C105.156 7.07728 105.355 7.00076 105.502 6.86563C105.649 6.73049 105.732 6.54768 105.732 6.3569V5.43572C105.732 5.24518 105.649 5.06262 105.502 4.92788C105.355 4.79314 105.155 4.71716 104.948 4.71651H103.23V2.74607C103.23 2.55509 103.146 2.37217 102.999 2.23736C102.851 2.10255 102.651 2.02685 102.443 2.02686H100.997C100.789 2.02685 100.589 2.10255 100.441 2.23736C100.294 2.37217 100.21 2.55509 100.21 2.74607V12.0145C100.195 12.4928 100.272 12.9697 100.438 13.4234C100.57 13.7656 100.788 14.0745 101.075 14.3249C101.349 14.5618 101.683 14.7313 102.048 14.8175C102.46 14.9129 102.883 14.9593 103.308 14.9554C103.757 14.962 104.205 14.9098 104.638 14.8003L104.88 14.7288C105.681 14.4579 105.692 14.2633 105.692 13.4653Z" fill="#4132E5"/>
<path fill-rule="evenodd" clip-rule="evenodd" d="M117.999 10.1748C118.011 9.4886 117.911 8.80459 117.703 8.14525C117.509 7.52939 117.185 6.95447 116.749 6.45313C116.313 5.95705 115.763 5.55579 115.137 5.27826C114.416 4.97332 113.628 4.82417 112.834 4.8423C112.123 4.83245 111.417 4.9603 110.763 5.2175C110.109 5.47471 109.522 5.85547 109.04 6.33491C108.572 6.80726 108.207 7.3574 107.965 7.9556C107.704 8.58491 107.573 9.25297 107.578 9.92604V9.96299C107.568 10.6638 107.709 11.3594 107.994 12.0098C108.261 12.6072 108.657 13.1492 109.158 13.6034C109.662 14.0573 110.263 14.4104 110.923 14.6403C111.63 14.8877 112.381 15.0114 113.138 15.0049C114.009 15.0214 114.873 14.8528 115.661 14.5122C116.046 14.3377 116.407 14.1219 116.736 13.8694C116.853 13.8033 116.95 13.7115 117.019 13.6024C117.087 13.4933 117.125 13.3703 117.129 13.2445C117.132 13.1186 117.102 12.9939 117.04 12.8816C116.978 12.7692 116.886 12.6728 116.774 12.6009L116.486 12.3546C115.804 11.9285 115.658 11.9187 114.874 12.3546C114.762 12.4175 114.645 12.4719 114.524 12.5172C114.1 12.6825 113.642 12.7664 113.181 12.7635C112.57 12.781 111.971 12.6073 111.482 12.2709C111.001 11.9119 110.68 11.4037 110.579 10.8423H116.491C117.421 10.8423 118.015 10.8275 118.023 10.1502L117.999 10.1748ZM115.059 9.13786H110.509C110.596 8.5784 110.863 8.05531 111.275 7.6354C111.474 7.44704 111.714 7.29939 111.979 7.20217C112.245 7.10495 112.53 7.06037 112.815 7.07136C113.099 7.05923 113.383 7.10333 113.647 7.20066C113.911 7.29799 114.149 7.44626 114.344 7.6354C114.746 8.05656 114.996 8.58141 115.059 9.13786Z" fill="#4132E5"/>
<path fill-rule="evenodd" clip-rule="evenodd" d="M63.8013 7.36684C64.2983 6.57811 65.0187 5.92726 65.8864 5.48324C66.754 5.03922 67.7365 4.81858 68.7299 4.84467C69.7484 4.87177 70.6298 5.02694 70.9738 4.48014C71.3177 3.93334 70.955 3.49492 70.8233 2.66241C70.7721 2.34681 70.7922 2.02493 70.8825 1.71677C70.9727 1.40861 71.1311 1.12074 71.3479 0.871049C71.5646 0.621358 71.835 0.415175 72.1423 0.265304C72.4497 0.115434 72.7873 0.0250772 73.1344 -0.000153729C73.6737 -0.0374325 74.2122 0.081943 74.6734 0.341029C75.1345 0.600116 75.4949 0.985749 75.7034 1.4432C75.8307 1.72802 75.8953 2.03313 75.8933 2.34092C75.8914 2.64871 75.823 2.95311 75.6921 3.23656C75.5612 3.52001 75.3704 3.77692 75.1306 3.99247C74.8909 4.20801 74.607 4.37794 74.2953 4.49246C73.4461 4.8028 72.8468 4.73876 72.5028 5.28063C72.1589 5.82251 72.7447 6.44812 73.2795 7.25108C73.7871 8.01207 74.0659 8.88268 74.0874 9.77442C74.109 10.6662 73.8725 11.5472 73.4021 12.3281C72.9317 13.1089 72.2442 13.7617 71.4093 14.22C70.5744 14.6783 69.6221 14.9259 68.649 14.9375C67.6759 14.9492 66.7168 14.7245 65.8692 14.2862C65.0216 13.848 64.3157 13.2119 63.8232 12.4426C63.3307 11.6732 63.0693 10.7981 63.0655 9.90617C63.0616 9.01422 63.3155 8.13724 63.8013 7.36438V7.36684ZM66.537 8.80034C66.3021 9.17212 66.1928 9.59946 66.2231 10.0282C66.2534 10.457 66.4218 10.8678 66.7071 11.2087C66.9925 11.5496 67.3818 11.8052 67.8257 11.9432C68.2697 12.0811 68.7483 12.0951 69.201 11.9834C69.6537 11.8717 70.06 11.6394 70.3684 11.3159C70.6769 10.9923 70.8736 10.5922 70.9337 10.166C70.9937 9.73993 70.9144 9.30707 70.7058 8.92231C70.4972 8.53755 70.1686 8.21822 69.7618 8.00477C69.2188 7.71917 68.5745 7.64254 67.97 7.79167C67.3655 7.9408 66.8502 8.30353 66.537 8.80034Z" fill="url(#paint0_linear_313_1377)"/>
</g>
<defs>
<linearGradient id="paint0_linear_313_1377" x1="66.6553" y1="12.8496" x2="73.4047" y2="0.523176" gradientUnits="userSpaceOnUse">
<stop stop-color="#3f35e1"/>
<stop offset="1" stop-color="#bc6dff"/>
</linearGradient>
<clipPath id="clip0_313_1377">
<rect width="118" height="15" fill="white"/>
</clipPath>
</defs>
</svg>
