<svg width="127" height="17" viewBox="0 0 127 17" fill="none" xmlns="http://www.w3.org/2000/svg">
<g clip-path="url(#clip0_300_225)">
<path fill-rule="evenodd" clip-rule="evenodd" d="M104.761 15.9504V10.3284C104.761 8.83031 104.355 7.66069 103.544 6.81953C102.732 5.97837 101.434 5.56616 99.6507 5.58291C98.8173 5.56849 97.985 5.65097 97.172 5.82856C96.9903 5.86713 96.8107 5.91464 96.634 5.97092C95.5437 6.33102 95.292 6.59342 95.5784 7.56485C95.6131 7.67092 95.5957 7.61788 95.6333 7.72396C95.9486 8.72888 96.0035 8.84054 97.2009 8.4944C97.3073 8.46334 97.4155 8.43817 97.5249 8.41903C98.0697 8.30868 98.6255 8.25626 99.1822 8.26271C99.9939 8.26271 100.606 8.43485 101.019 8.77913C101.233 8.96957 101.399 9.20383 101.507 9.46469C101.615 9.72556 101.66 10.0064 101.641 10.2865V10.4708C101.225 10.3326 100.8 10.2225 100.368 10.1414C99.8644 10.0517 99.3529 10.0096 98.8409 10.0157C98.2099 10.0094 97.5808 10.0826 96.9696 10.2335C96.4495 10.3607 95.9589 10.5814 95.5234 10.8839C95.1234 11.1672 94.7992 11.5385 94.5776 11.967C94.3398 12.4564 94.223 12.9925 94.2364 13.533C94.2208 14.0479 94.3267 14.5595 94.5458 15.0292C94.7456 15.4378 95.0335 15.8004 95.3904 16.0928C95.7541 16.3881 96.1748 16.611 96.6283 16.7488C97.1227 16.8964 97.6378 16.9698 98.1554 16.9665C98.8512 16.9848 99.5426 16.8542 100.18 16.5841C100.722 16.3389 101.209 15.9926 101.612 15.5652C101.612 15.7075 101.612 15.8694 101.612 15.9923C101.619 16.1969 101.709 16.3905 101.863 16.5319C102.016 16.6732 102.221 16.7511 102.433 16.7488H103.957C104.066 16.7485 104.173 16.7271 104.273 16.6859C104.372 16.6446 104.462 16.5845 104.538 16.5089C104.613 16.4333 104.671 16.3439 104.71 16.2461C104.748 16.1482 104.766 16.0438 104.761 15.9392V15.9504ZM101.684 12.8407C101.689 13.1098 101.629 13.3763 101.508 13.6188C101.387 13.8612 101.208 14.0728 100.987 14.2364C100.456 14.6234 99.8032 14.8207 99.1388 14.7947C98.6834 14.815 98.2336 14.6915 97.8575 14.443C97.6968 14.3308 97.5677 14.1817 97.4818 14.0091C97.3959 13.8365 97.3561 13.646 97.3658 13.4548C97.3492 13.2258 97.3959 12.9966 97.5011 12.7906C97.6063 12.5846 97.7662 12.4093 97.9645 12.2824C98.4607 11.9974 99.0336 11.8614 99.6102 11.8916C99.9875 11.8899 100.364 11.9282 100.732 12.0061C101.059 12.074 101.378 12.1741 101.684 12.3047V12.8407Z" fill="url(#paint0_linear_300_225)"/>
<path fill-rule="evenodd" clip-rule="evenodd" d="M91.9542 14.1639L91.7806 13.9936C91.0055 13.3041 91.0287 13.2427 89.6809 13.9769C89.2424 14.1987 88.7527 14.3092 88.2578 14.2979C87.8458 14.302 87.4375 14.2211 87.0604 14.0606C86.711 13.9032 86.3988 13.678 86.1436 13.399C85.8863 13.1162 85.6897 12.787 85.5651 12.4304C85.4285 12.045 85.3601 11.6402 85.3627 11.2329V11.191C85.3607 10.7946 85.4291 10.4009 85.5651 10.0269C85.6933 9.67442 85.8896 9.34857 86.1436 9.06668C86.3847 8.79593 86.6798 8.57474 87.0113 8.41627C87.3613 8.25443 87.7454 8.1732 88.1335 8.17899C88.6429 8.16242 89.1477 8.27605 89.597 8.50838C90.8233 9.17833 90.8638 9.23695 91.5695 8.5363L91.9137 8.17899C92.5124 7.50067 92.7149 7.12103 91.6505 6.42037C91.3955 6.25132 91.1277 6.10108 90.8493 5.97094C89.9999 5.61531 89.0791 5.44654 88.1537 5.47686C87.3211 5.46693 86.4953 5.62179 85.7271 5.93186C85.0179 6.219 84.3749 6.63935 83.8355 7.16848C83.3036 7.69758 82.8831 8.3214 82.5977 9.00526C82.2959 9.71348 82.1435 10.4727 82.1494 11.2384V11.2803C82.1317 12.4019 82.4633 13.5027 83.1011 14.4403C83.739 15.378 84.6538 16.1092 85.7271 16.5394C86.4818 16.8471 87.294 17.002 88.1132 16.9944C89.0725 17.035 90.0271 16.8431 90.8898 16.4361C91.1545 16.2943 91.4104 16.1377 91.6563 15.9672C92.6541 15.2246 92.6483 14.8115 91.9542 14.1639Z" fill="url(#paint1_linear_300_225)"/>
<path fill-rule="evenodd" clip-rule="evenodd" d="M59.2569 11.5315C59.2679 10.7529 59.1557 9.9773 58.9243 9.23135C58.7165 8.53354 58.3686 7.88194 57.9005 7.31362C57.4315 6.75106 56.8387 6.29623 56.1651 5.98209C55.3889 5.63649 54.5409 5.46746 53.6864 5.488C52.9208 5.47754 52.1615 5.62276 51.4579 5.91421C50.7543 6.20567 50.1221 6.63682 49.6025 7.17963C49.0987 7.71483 48.706 8.33836 48.4456 9.01641C48.1652 9.72963 48.024 10.4868 48.0291 11.2496V11.2914C48.0169 12.0858 48.1694 12.8745 48.4774 13.6112C48.7629 14.2886 49.1879 14.9031 49.7269 15.4172C50.2701 15.932 50.9181 16.3321 51.63 16.5924C52.3906 16.873 53.199 17.0132 54.0132 17.0056C54.9501 17.0239 55.8786 16.8329 56.7262 16.4473C57.1408 16.2502 57.5292 16.0055 57.8831 15.7187C58.0089 15.6438 58.1134 15.5398 58.1872 15.4161C58.2609 15.2925 58.3017 15.1531 58.3057 15.0105C58.3097 14.8678 58.2769 14.7265 58.2102 14.5992C58.1435 14.4718 58.045 14.3625 57.9236 14.2811L57.6141 14.002C56.8795 13.519 56.7233 13.5079 55.8788 14.002C55.7579 14.0733 55.6312 14.1349 55.4999 14.1862C55.0428 14.3742 54.5505 14.4693 54.0537 14.4653C53.3964 14.4852 52.7516 14.2883 52.2258 13.907C51.7075 13.4999 51.361 12.9242 51.2511 12.288H57.6141C58.6178 12.288 59.2541 12.2713 59.2627 11.5036L59.2569 11.5315ZM56.0928 10.3563H51.1933C51.286 9.72154 51.5742 9.1283 52.0205 8.65352C52.2346 8.44047 52.4929 8.27342 52.7785 8.16327C53.064 8.05312 53.3705 8.00235 53.6777 8.01427C53.9835 8.00034 54.2889 8.05024 54.5729 8.16055C54.8569 8.27087 55.1129 8.43902 55.3234 8.65352C55.7569 9.13024 56.0258 9.72538 56.0928 10.3563Z" fill="url(#paint2_linear_300_225)"/>
<path fill-rule="evenodd" clip-rule="evenodd" d="M30.3168 15.2609V15.166C30.3168 13.9043 30.3544 13.8903 29.4665 14.0941C29.2187 14.147 28.9655 14.1732 28.7116 14.1722C28.0155 14.1722 27.6665 13.8149 27.6646 13.1003V8.02265H29.5012C29.614 8.02525 29.7261 8.00611 29.8311 7.96635C29.936 7.92659 30.0317 7.867 30.1125 7.79109C30.1934 7.71518 30.2577 7.62446 30.3017 7.52426C30.3457 7.42406 30.3685 7.31638 30.3689 7.20754V6.16075C30.3689 6.0518 30.3464 5.94395 30.3025 5.84357C30.2586 5.74319 30.1943 5.65233 30.1134 5.57634C30.0325 5.50035 29.9367 5.44078 29.8315 5.40116C29.7264 5.36153 29.6141 5.34265 29.5012 5.34564H27.6646V3.11247C27.6646 2.89629 27.5756 2.68896 27.4173 2.5361C27.2589 2.38324 27.0441 2.29736 26.8201 2.29736H25.2611C25.0371 2.29736 24.8223 2.38324 24.6639 2.5361C24.5056 2.68896 24.4166 2.89629 24.4166 3.11247V13.6167C24.3996 14.1598 24.4829 14.7014 24.6624 15.2162C24.8032 15.6032 25.0371 15.9524 25.345 16.2351C25.64 16.503 26 16.695 26.392 16.7934C26.8363 16.9016 27.2932 16.9541 27.7514 16.9497C28.2397 16.9583 28.7267 16.8991 29.1975 16.7739L29.4549 16.6929C30.3024 16.3859 30.3168 16.1653 30.3168 15.2609Z" fill="url(#paint3_linear_300_225)"/>
<path fill-rule="evenodd" clip-rule="evenodd" d="M7.19022 2.20813C6.1114 2.20813 6.05066 2.38957 5.63706 3.32471L0.364437 15.2889C-0.289218 16.7489 -0.147497 16.7489 1.40277 16.7489H1.63126C2.78817 16.7489 3.04847 16.8075 3.54884 15.6323L4.44255 13.5191H10.7593L11.6501 15.6323C12.1476 16.8131 12.4368 16.7684 13.5706 16.7489H13.7991C15.3493 16.7489 15.4824 16.7489 14.8374 15.2861L9.56478 3.3303C9.14829 2.38958 9.09044 2.21371 8.01162 2.21371L7.19022 2.20813ZM5.61971 10.7081L7.60092 6.03801L9.58213 10.7081H5.61971Z" fill="url(#paint4_linear_300_225)"/>
<path d="M19.8583 5.32605H18.2994C17.833 5.32605 17.4548 5.69099 17.4548 6.14116V15.9364C17.4548 16.3866 17.833 16.7515 18.2994 16.7515H19.8583C20.3247 16.7515 20.7029 16.3866 20.7029 15.9364V6.14116C20.7029 5.69099 20.3247 5.32605 19.8583 5.32605Z" fill="url(#paint5_linear_300_225)"/>
<path fill-rule="evenodd" clip-rule="evenodd" d="M34.4181 2.3114H40.4109C42.1926 2.3114 43.5789 2.73105 44.57 3.57035C45.5611 4.40965 46.0557 5.57834 46.0538 7.07643C46.0538 8.12043 45.8455 9.13373 45.1687 9.97396C44.571 10.714 43.7689 11.2761 42.8549 11.5958L45.1196 14.8088C45.9554 15.984 46.5657 16.7628 45.1398 16.7628H43.7342C42.6958 16.7628 42.5454 16.6121 41.9756 15.7914L39.4449 12.1429H36.8592V15.9365C36.8577 16.1501 36.7698 16.3546 36.6141 16.5064C36.4585 16.6582 36.2475 16.7452 36.0262 16.7488H34.4181C34.1939 16.7488 33.9787 16.6631 33.8199 16.5103C33.6611 16.3575 33.5714 16.1502 33.5707 15.9337V3.12651C33.5714 2.91007 33.6611 2.70275 33.8199 2.54997C33.9787 2.39719 34.1939 2.3114 34.4181 2.3114ZM36.865 5.17823V9.32634H40.2027C40.8765 9.36949 41.543 9.17064 42.074 8.76805C42.2899 8.58255 42.4605 8.35314 42.5736 8.09635C42.6866 7.83956 42.7392 7.56177 42.7276 7.28299C42.753 6.98467 42.704 6.68482 42.5847 6.4085C42.4655 6.13218 42.2794 5.88741 42.0422 5.69465C41.4855 5.32188 40.8154 5.14005 40.139 5.17823H36.865Z" fill="url(#paint6_linear_300_225)"/>
<path d="M64.2492 2.31689H62.644C62.1776 2.31689 61.7994 2.68183 61.7994 3.132V15.942C61.7994 16.3922 62.1776 16.7571 62.644 16.7571H64.2492C64.7156 16.7571 65.0937 16.3922 65.0937 15.942V3.132C65.0937 2.68183 64.7156 2.31689 64.2492 2.31689Z" fill="url(#paint7_linear_300_225)"/>
<path fill-rule="evenodd" clip-rule="evenodd" d="M113.753 15.2609V15.166C113.753 13.9043 113.794 13.8903 112.903 14.0913C112.656 14.1465 112.404 14.1737 112.151 14.1722C111.451 14.1722 111.104 13.8149 111.104 13.1003V8.02265H112.952C113.176 8.02118 113.391 7.93445 113.549 7.7813C113.707 7.62815 113.796 7.42097 113.797 7.20475V6.16075C113.796 5.94479 113.707 5.73789 113.549 5.58519C113.39 5.43249 113.176 5.34637 112.952 5.34564H111.104V3.11247C111.103 2.89603 111.014 2.68871 110.855 2.53593C110.696 2.38315 110.481 2.29736 110.257 2.29736H108.701C108.476 2.29736 108.261 2.38315 108.102 2.53593C107.943 2.68871 107.854 2.89603 107.853 3.11247V13.6167C107.837 14.1588 107.921 14.6993 108.099 15.2135C108.241 15.6013 108.476 15.9513 108.784 16.2351C109.079 16.5036 109.439 16.6957 109.831 16.7934C110.275 16.9016 110.731 16.9541 111.188 16.9497C111.671 16.9572 112.153 16.898 112.62 16.7739L112.88 16.6929C113.742 16.3859 113.753 16.1653 113.753 15.2609Z" fill="url(#paint8_linear_300_225)"/>
<path fill-rule="evenodd" clip-rule="evenodd" d="M127 11.5315C127.013 10.7538 126.905 9.9786 126.682 9.23135C126.473 8.53338 126.124 7.88179 125.655 7.31362C125.186 6.75139 124.593 6.29663 123.92 5.98209C123.143 5.63649 122.295 5.46746 121.441 5.488C120.675 5.47684 119.916 5.62174 119.212 5.91324C118.508 6.20473 117.876 6.63626 117.357 7.17963C116.853 7.71496 116.461 8.33845 116.2 9.01641C115.92 9.72963 115.779 10.4868 115.784 11.2496V11.2914C115.773 12.0857 115.925 12.8741 116.232 13.6112C116.519 14.2883 116.945 14.9025 117.484 15.4172C118.027 15.9316 118.674 16.3318 119.384 16.5924C120.145 16.8728 120.954 17.013 121.768 17.0056C122.706 17.0244 123.635 16.8333 124.484 16.4473C124.898 16.2495 125.286 16.0049 125.641 15.7187C125.766 15.6438 125.871 15.5398 125.945 15.4161C126.018 15.2925 126.059 15.1531 126.063 15.0105C126.067 14.8678 126.034 14.7265 125.968 14.5992C125.901 14.4718 125.802 14.3625 125.681 14.2811L125.372 14.002C124.637 13.519 124.481 13.5079 123.636 14.002C123.516 14.0733 123.391 14.1349 123.26 14.1862C122.803 14.3736 122.311 14.4686 121.814 14.4653C121.157 14.4852 120.512 14.2883 119.986 13.907C119.468 13.5003 119.122 12.9242 119.014 12.288H125.377C126.378 12.288 127.017 12.2713 127.026 11.5036L127 11.5315ZM123.836 10.3563H118.939C119.032 9.72225 119.319 9.12941 119.763 8.65352C119.977 8.44005 120.235 8.27271 120.521 8.16253C120.807 8.05235 121.113 8.00182 121.421 8.01427C121.726 8.00053 122.032 8.05051 122.316 8.16081C122.6 8.27112 122.856 8.43917 123.066 8.65352C123.499 9.13084 123.768 9.72566 123.836 10.3563Z" fill="url(#paint9_linear_300_225)"/>
<path fill-rule="evenodd" clip-rule="evenodd" d="M68.6685 8.34927C69.2033 7.45537 69.9787 6.71773 70.9126 6.21452C71.8464 5.7113 72.9039 5.46123 73.9729 5.49081C75.0691 5.52152 76.0178 5.69738 76.388 5.07767C76.7582 4.45797 76.3677 3.96109 76.226 3.01757C76.1709 2.65989 76.1926 2.2951 76.2897 1.94585C76.3869 1.5966 76.5574 1.27035 76.7906 0.987368C77.0239 0.704385 77.3149 0.47071 77.6457 0.300857C77.9765 0.131004 78.3399 0.0285998 78.7134 4.80982e-06C79.2939 -0.0422445 79.8734 0.0930477 80.3698 0.386679C80.8661 0.68031 81.254 1.11736 81.4784 1.6358C81.6154 1.9586 81.6849 2.30439 81.6828 2.65322C81.6807 3.00205 81.6071 3.34704 81.4662 3.66828C81.3253 3.98953 81.1199 4.28069 80.8619 4.52498C80.6039 4.76926 80.2983 4.96185 79.9628 5.09163C79.0489 5.44335 78.4039 5.37078 78.0337 5.9849C77.6635 6.59902 78.294 7.30805 78.8696 8.21807C79.4159 9.08052 79.7159 10.0672 79.7391 11.0779C79.7623 12.0885 79.5078 13.087 79.0016 13.972C78.4953 14.8569 77.7553 15.5967 76.8567 16.1162C75.9582 16.6356 74.9332 16.9162 73.8859 16.9294C72.8386 16.9426 71.8063 16.6879 70.8941 16.1912C69.9818 15.6946 69.222 14.9737 68.692 14.1018C68.162 13.2299 67.8806 12.2381 67.8765 11.2272C67.8724 10.2163 68.1456 9.22239 68.6685 8.34647V8.34927ZM71.6128 9.9739C71.36 10.3952 71.2424 10.8796 71.2749 11.3655C71.3075 11.8514 71.4889 12.3171 71.7959 12.7034C72.103 13.0898 72.522 13.3795 72.9998 13.5358C73.4777 13.692 73.9928 13.7079 74.48 13.5814C74.9672 13.4548 75.4045 13.1915 75.7365 12.8248C76.0684 12.4581 76.2802 12.0046 76.3448 11.5217C76.4095 11.0388 76.3241 10.5482 76.0996 10.1121C75.875 9.67607 75.5214 9.31416 75.0836 9.07225C74.4992 8.74857 73.8057 8.66172 73.1551 8.83073C72.5045 8.99975 71.9499 9.41084 71.6128 9.9739Z" fill="url(#paint10_linear_300_225)"/>
</g>
<defs>
<linearGradient id="paint0_linear_300_225" x1="97.1808" y1="15.377" x2="102.112" y2="5.67642" gradientUnits="userSpaceOnUse">
<stop stop-color="white"/>
<stop offset="1" stop-color="white"/>
</linearGradient>
<linearGradient id="paint1_linear_300_225" x1="85.0299" y1="15.3891" x2="90.1222" y2="5.71121" gradientUnits="userSpaceOnUse">
<stop stop-color="white"/>
<stop offset="1" stop-color="white"/>
</linearGradient>
<linearGradient id="paint2_linear_300_225" x1="51.1723" y1="15.3969" x2="56.003" y2="5.37423" gradientUnits="userSpaceOnUse">
<stop stop-color="white"/>
<stop offset="1" stop-color="white"/>
</linearGradient>
<linearGradient id="paint3_linear_300_225" x1="26.0808" y1="14.9029" x2="33.8531" y2="8.183" gradientUnits="userSpaceOnUse">
<stop stop-color="white"/>
<stop offset="1" stop-color="white"/>
</linearGradient>
<linearGradient id="paint4_linear_300_225" x1="4.25147" y1="14.7223" x2="10.0847" y2="1.74959" gradientUnits="userSpaceOnUse">
<stop stop-color="white"/>
<stop offset="1" stop-color="white"/>
</linearGradient>
<linearGradient id="paint5_linear_300_225" x1="18.3638" y1="15.1549" x2="23.7882" y2="11.874" gradientUnits="userSpaceOnUse">
<stop stop-color="white"/>
<stop offset="1" stop-color="white"/>
</linearGradient>
<linearGradient id="paint6_linear_300_225" x1="37.064" y1="14.7434" x2="43.5683" y2="2.78927" gradientUnits="userSpaceOnUse">
<stop stop-color="white"/>
<stop offset="1" stop-color="white"/>
</linearGradient>
<linearGradient id="paint7_linear_300_225" x1="62.7213" y1="14.7393" x2="68.8029" y2="11.7873" gradientUnits="userSpaceOnUse">
<stop stop-color="white"/>
<stop offset="1" stop-color="white"/>
</linearGradient>
<linearGradient id="paint8_linear_300_225" x1="109.515" y1="14.9028" x2="117.286" y2="8.19436" gradientUnits="userSpaceOnUse">
<stop stop-color="white"/>
<stop offset="1" stop-color="white"/>
</linearGradient>
<linearGradient id="paint9_linear_300_225" x1="118.929" y1="15.397" x2="123.758" y2="5.37137" gradientUnits="userSpaceOnUse">
<stop stop-color="white"/>
<stop offset="1" stop-color="white"/>
</linearGradient>
<linearGradient id="paint10_linear_300_225" x1="71.7401" y1="14.5631" x2="79.5977" y2="0.935264" gradientUnits="userSpaceOnUse">
<stop stop-color="white"/>
<stop offset="1" stop-color="white"/>
</linearGradient>
<clipPath id="clip0_300_225">
<rect width="127" height="17" fill="white"/>
</clipPath>
</defs>
</svg>
