<svg width="16" height="16" viewBox="0 0 16 16" fill="none" xmlns="http://www.w3.org/2000/svg">
<g clip-path="url(#clip0_300_272)">
<path d="M16 3.03953C15.4111 3.30047 14.7792 3.47744 14.1153 3.55644C14.7932 3.15051 15.3121 2.50664 15.558 1.74178C14.9222 2.1177 14.2203 2.39067 13.4724 2.53864C12.8735 1.89977 12.0217 1.50183 11.0769 1.50183C9.26421 1.50183 7.79448 2.97155 7.79448 4.78321C7.79448 5.04015 7.82348 5.29111 7.87948 5.53108C5.152 5.39409 2.73346 4.08734 1.11477 2.1017C0.831817 2.58562 0.67085 3.14949 0.67085 3.7514C0.67085 4.89019 1.25075 5.895 2.13059 6.48287C1.59268 6.46488 1.08677 6.31691 0.643869 6.07095V6.11194C0.643869 7.70164 1.77566 9.02838 3.27637 9.33034C3.00141 9.40433 2.71148 9.44532 2.41153 9.44532C2.19958 9.44532 1.99461 9.42433 1.79365 9.38433C2.21156 10.6891 3.42335 11.6379 4.85908 11.6639C3.73629 12.5438 2.32055 13.0667 0.78285 13.0667C0.517909 13.0667 0.256941 13.0507 0 13.0217C1.45273 13.9545 3.17741 14.4984 5.03106 14.4984C11.0689 14.4984 14.3693 9.49733 14.3693 5.16015L14.3583 4.73524C15.0032 4.27529 15.561 3.69741 16 3.03953Z" fill="#181818"/>
</g>
<defs>
<clipPath id="clip0_300_272">
<rect width="16" height="16" fill="white"/>
</clipPath>
</defs>
</svg>
