<svg width="48" height="48" viewBox="0 0 48 48" fill="none" xmlns="http://www.w3.org/2000/svg">
<path d="M8.8998 17.6996H10.2995V19.9H8.8998V17.6996Z" fill="#3F35E1" stroke="white" stroke-width="0.2"/>
<path d="M5.70022 17.6996H7.10035V19.9H5.70022V17.6996Z" fill="#3F35E1" stroke="white" stroke-width="0.2"/>
<path d="M8.8998 24.8998H10.2995V27.1002H8.8998V24.8998Z" fill="#3F35E1" stroke="white" stroke-width="0.2"/>
<path d="M5.70022 24.8998H7.10035V27.1002H5.70022V24.8998Z" fill="#3F35E1" stroke="white" stroke-width="0.2"/>
<path d="M8.8998 35.2997H10.2995V37.5001H8.8998V35.2997Z" fill="#3F35E1" stroke="white" stroke-width="0.2"/>
<path d="M5.70022 35.2997H7.10035V37.5001H5.70022V35.2997Z" fill="#3F35E1" stroke="white" stroke-width="0.2"/>
<path d="M5.70022 32.1H7.10035V33.4999H5.70022V32.1Z" fill="#3F35E1" stroke="white" stroke-width="0.2"/>
<path d="M8.8998 32.1H10.2995V33.4999H8.8998V32.1Z" fill="#3F35E1" stroke="white" stroke-width="0.2"/>
<mask id="path-9-inside-1_300_470" fill="white">
<path d="M47.1995 39.2001H46.3996V10.3998C46.3996 10.314 46.3859 10.2287 46.3586 10.1471L44.7999 5.46948V3.20026H43.1998V5.46948L42.3995 7.86946L40.7996 3.0697V0H39.2001V3.0697L37.5999 7.86967L36.7997 5.46948V3.20026H35.1995V5.46948L33.6404 10.1471C33.6135 10.2287 33.5996 10.314 33.5996 10.3998V18.4H14.3999V10.3998C14.4001 10.314 14.3862 10.2287 14.3594 10.1471L12.7998 5.46948V3.20026H11.1997V5.46948L10.3998 7.86946L8.80009 3.0697V0H7.19996V3.0697L5.59983 7.86967L4.79997 5.46948V3.20026H3.20026V5.46948L1.64112 10.1471C1.61386 10.2287 1.60013 10.314 1.60013 10.3998V39.2001H0.800277C0.358097 39.2001 0 39.5579 0 40.0001V47.1999C0 47.6416 0.358097 47.9999 0.800277 47.9999H14.3999C14.8417 47.9999 15.2002 47.6416 15.2002 47.1999V44.6776L23.9999 43.2107L32.8 44.6776V47.1999C32.8 47.6416 33.1581 47.9999 33.6 47.9999H47.1999C47.6416 47.9999 47.9999 47.6416 47.9999 47.1999V40.0001C47.9997 39.5579 47.6416 39.2001 47.1995 39.2001ZM23.9999 39.2001H14.3999V23.2H33.6V39.2001H23.9999ZM29.5997 40.7998V42.5224L27.9996 42.255V40.7998H29.5997ZM20.0002 40.7998V42.255L18.4 42.5224V40.7998H20.0002ZM21.6001 40.7998H23.2V41.7222L21.6001 41.9888V40.7998ZM6.40011 10.5304L8.00024 5.73039L9.59974 10.5304V11.8106L8.72002 10.0426C8.48404 9.64685 7.97235 9.51755 7.57686 9.75333C7.45792 9.8241 7.35862 9.92361 7.28827 10.0426L6.39968 11.8111V10.5304H6.40011ZM9.10558 14.3999H6.89405L8.00024 12.1888L9.10558 14.3999ZM5.59983 15.9996H12.8002V21.5997H3.20026V15.9996H5.59983ZM3.20026 23.2H12.7998V28.7998H3.20026V23.2ZM20.0002 21.6001V20.0002H21.5997V21.5997H20.0002V21.6001ZM18.4 21.6001H16.7999V20.0002H18.4V21.6001ZM29.5997 21.6001V20.0002H31.1998V21.5997H29.5997V21.6001ZM27.9996 21.6001H26.4001V20.0002H27.9996V21.6001ZM35.1995 19.1999V16.0003H44.7999V21.6001H35.1995V19.1999ZM38.4 10.5304L39.9995 5.73039L41.5996 10.5304V11.8106L40.7197 10.0417C40.4839 9.64643 39.9725 9.51713 39.5768 9.75248C39.458 9.82347 39.3587 9.92276 39.2875 10.0417L38.3998 11.8111V10.5304H38.4ZM41.1057 14.3999H38.8941L40.0001 12.1888L41.1057 14.3999ZM44.7999 28.7998H35.1995V23.2H44.7999V28.7998ZM35.1995 30.4H44.7999V39.2001H35.1995V30.4ZM43.1998 10.5297L44 8.12953L44.7999 10.5297V14.3999H43.1998V10.5297ZM35.1995 10.5297L35.9998 8.12953L36.8001 10.5297V14.3999H35.1999V10.5297H35.1995ZM33.6 21.6001H32.8V20.0002H33.6V21.6001ZM24.7997 20.0002V21.5997H23.2V20.0002H24.7997ZM15.2002 20.0002V21.5997H14.3999V20.0002H15.2002ZM11.2001 10.5297L11.9999 8.12953L12.8002 10.5297V14.3999H11.2001V10.5297ZM3.20026 10.5297L3.9997 8.12953L4.79997 10.5297V14.3999H3.20026V10.5297ZM3.20026 30.4H12.7998V39.2001H3.20026V30.4ZM13.6001 46.3996H1.60013V40.7998H13.6001V46.3996ZM15.2002 40.7998H16.7999V42.7888L15.2002 43.055V40.7998ZM24.7997 40.7998H26.3999V41.9888L24.7997 41.7222V40.7998ZM31.1998 42.7888V40.7998H32.8V43.0548L31.1998 42.7888ZM46.3996 46.3996H34.3997V40.7998H46.3996V46.3996Z"/>
</mask>
<path d="M47.1995 39.2001H46.3996V10.3998C46.3996 10.314 46.3859 10.2287 46.3586 10.1471L44.7999 5.46948V3.20026H43.1998V5.46948L42.3995 7.86946L40.7996 3.0697V0H39.2001V3.0697L37.5999 7.86967L36.7997 5.46948V3.20026H35.1995V5.46948L33.6404 10.1471C33.6135 10.2287 33.5996 10.314 33.5996 10.3998V18.4H14.3999V10.3998C14.4001 10.314 14.3862 10.2287 14.3594 10.1471L12.7998 5.46948V3.20026H11.1997V5.46948L10.3998 7.86946L8.80009 3.0697V0H7.19996V3.0697L5.59983 7.86967L4.79997 5.46948V3.20026H3.20026V5.46948L1.64112 10.1471C1.61386 10.2287 1.60013 10.314 1.60013 10.3998V39.2001H0.800277C0.358097 39.2001 0 39.5579 0 40.0001V47.1999C0 47.6416 0.358097 47.9999 0.800277 47.9999H14.3999C14.8417 47.9999 15.2002 47.6416 15.2002 47.1999V44.6776L23.9999 43.2107L32.8 44.6776V47.1999C32.8 47.6416 33.1581 47.9999 33.6 47.9999H47.1999C47.6416 47.9999 47.9999 47.6416 47.9999 47.1999V40.0001C47.9997 39.5579 47.6416 39.2001 47.1995 39.2001ZM23.9999 39.2001H14.3999V23.2H33.6V39.2001H23.9999ZM29.5997 40.7998V42.5224L27.9996 42.255V40.7998H29.5997ZM20.0002 40.7998V42.255L18.4 42.5224V40.7998H20.0002ZM21.6001 40.7998H23.2V41.7222L21.6001 41.9888V40.7998ZM6.40011 10.5304L8.00024 5.73039L9.59974 10.5304V11.8106L8.72002 10.0426C8.48404 9.64685 7.97235 9.51755 7.57686 9.75333C7.45792 9.8241 7.35862 9.92361 7.28827 10.0426L6.39968 11.8111V10.5304H6.40011ZM9.10558 14.3999H6.89405L8.00024 12.1888L9.10558 14.3999ZM5.59983 15.9996H12.8002V21.5997H3.20026V15.9996H5.59983ZM3.20026 23.2H12.7998V28.7998H3.20026V23.2ZM20.0002 21.6001V20.0002H21.5997V21.5997H20.0002V21.6001ZM18.4 21.6001H16.7999V20.0002H18.4V21.6001ZM29.5997 21.6001V20.0002H31.1998V21.5997H29.5997V21.6001ZM27.9996 21.6001H26.4001V20.0002H27.9996V21.6001ZM35.1995 19.1999V16.0003H44.7999V21.6001H35.1995V19.1999ZM38.4 10.5304L39.9995 5.73039L41.5996 10.5304V11.8106L40.7197 10.0417C40.4839 9.64643 39.9725 9.51713 39.5768 9.75248C39.458 9.82347 39.3587 9.92276 39.2875 10.0417L38.3998 11.8111V10.5304H38.4ZM41.1057 14.3999H38.8941L40.0001 12.1888L41.1057 14.3999ZM44.7999 28.7998H35.1995V23.2H44.7999V28.7998ZM35.1995 30.4H44.7999V39.2001H35.1995V30.4ZM43.1998 10.5297L44 8.12953L44.7999 10.5297V14.3999H43.1998V10.5297ZM35.1995 10.5297L35.9998 8.12953L36.8001 10.5297V14.3999H35.1999V10.5297H35.1995ZM33.6 21.6001H32.8V20.0002H33.6V21.6001ZM24.7997 20.0002V21.5997H23.2V20.0002H24.7997ZM15.2002 20.0002V21.5997H14.3999V20.0002H15.2002ZM11.2001 10.5297L11.9999 8.12953L12.8002 10.5297V14.3999H11.2001V10.5297ZM3.20026 10.5297L3.9997 8.12953L4.79997 10.5297V14.3999H3.20026V10.5297ZM3.20026 30.4H12.7998V39.2001H3.20026V30.4ZM13.6001 46.3996H1.60013V40.7998H13.6001V46.3996ZM15.2002 40.7998H16.7999V42.7888L15.2002 43.055V40.7998ZM24.7997 40.7998H26.3999V41.9888L24.7997 41.7222V40.7998ZM31.1998 42.7888V40.7998H32.8V43.0548L31.1998 42.7888ZM46.3996 46.3996H34.3997V40.7998H46.3996V46.3996Z" fill="#3F35E1" stroke="white" stroke-width="0.4" mask="url(#path-9-inside-1_300_470)"/>
<path d="M40.8993 17.6996H42.2994V19.9H40.8993V17.6996Z" fill="#3F35E1" stroke="white" stroke-width="0.2"/>
<path d="M37.7001 17.6996H39.1002V19.9H37.7001V17.6996Z" fill="#3F35E1" stroke="white" stroke-width="0.2"/>
<path d="M40.8993 24.8998H42.2994V27.1002H40.8993V24.8998Z" fill="#3F35E1" stroke="white" stroke-width="0.2"/>
<path d="M37.7001 24.8998H39.1002V27.1002H37.7001V24.8998Z" fill="#3F35E1" stroke="white" stroke-width="0.2"/>
<path d="M40.8993 35.2997H42.2994V37.5001H40.8993V35.2997Z" fill="#3F35E1" stroke="white" stroke-width="0.2"/>
<path d="M37.7001 35.2997H39.1002V37.5001H37.7001V35.2997Z" fill="#3F35E1" stroke="white" stroke-width="0.2"/>
<path d="M37.7001 32.1H39.1002V33.4999H37.7001V32.1Z" fill="#3F35E1" stroke="white" stroke-width="0.2"/>
<path d="M40.8993 32.1H42.2994V33.4999H40.8993V32.1Z" fill="#3F35E1" stroke="white" stroke-width="0.2"/>
</svg>
