<svg width="16" height="16" viewBox="0 0 16 16" fill="none" xmlns="http://www.w3.org/2000/svg">
<g clip-path="url(#clip0_300_259)">
<path d="M5.8805 3.0988C5.8805 3.502 5.8805 5.30167 5.8805 5.30167H4.2666V7.99536H5.8805V16H9.1958V7.99558H11.4205C11.4205 7.99558 11.6289 6.70398 11.7299 5.29174C11.4403 5.29174 9.20833 5.29174 9.20833 5.29174C9.20833 5.29174 9.20833 3.72464 9.20833 3.44996C9.20833 3.17468 9.5698 2.8044 9.92706 2.8044C10.2837 2.8044 11.0363 2.8044 11.7334 2.8044C11.7334 2.43765 11.7334 1.17045 11.7334 0.00012208C10.8028 0.00012208 9.74408 0.00012208 9.27741 0.00012208C5.79855 -6.39173e-05 5.8805 2.6963 5.8805 3.0988Z" fill="#181818"/>
</g>
<defs>
<clipPath id="clip0_300_259">
<rect width="16" height="16" fill="white"/>
</clipPath>
</defs>
</svg>
