<svg width="19" height="18" viewBox="0 0 19 18" fill="none" xmlns="http://www.w3.org/2000/svg">
<g clip-path="url(#clip0_733_6284)">
<path d="M8.52017 15.343C10.1702 15.343 11.6702 14.8287 12.9345 13.9287L16.9202 17.9145L18.7416 16.093L14.7345 12.1073C15.613 10.8645 16.1487 9.34302 16.1487 7.69302C16.1487 3.49302 12.7202 0.0644531 8.52017 0.0644531C4.32017 0.0644531 0.891602 3.49302 0.891602 7.71445C0.891602 11.9359 4.29874 15.343 8.52017 15.343ZM8.52017 2.65731C11.3059 2.65731 13.5773 4.92874 13.5773 7.71445C13.5773 10.5002 11.3059 12.7716 8.52017 12.7716C5.73446 12.7716 3.46303 10.5002 3.46303 7.71445C3.46303 4.92874 5.73446 2.65731 8.52017 2.65731Z" fill="white"/>
</g>
<defs>
<clipPath id="clip0_733_6284">
<rect width="18" height="18" fill="white" transform="translate(0.805664)"/>
</clipPath>
</defs>
</svg>
