<svg width="21" height="21" viewBox="0 0 21 21" fill="none" xmlns="http://www.w3.org/2000/svg">
<g clip-path="url(#clip0_300_297)">
<path d="M20.8202 0.183287C20.6456 0.00867471 20.377 -0.040575 20.1531 0.0579245L0.363672 8.73036C0.153241 8.82438 0.0144465 9.02586 0.00101478 9.2542C-0.012417 9.48253 0.108469 9.69744 0.305468 9.80937L7.20491 13.7225L11.3016 20.6936C11.409 20.8771 11.6105 20.9935 11.821 20.9935C11.8344 20.9935 11.8433 20.9935 11.8568 20.9935C12.0851 20.9801 12.2821 20.8413 12.3761 20.6309L20.9501 0.850398C21.0486 0.622058 20.9993 0.3579 20.8202 0.183287ZM17.6727 2.46221L7.54518 12.5226L1.9531 9.35269L17.6727 2.46221ZM11.7404 19.0549L8.40481 13.3733L18.5906 3.25468L11.7404 19.0549Z" fill="white"/>
</g>
<defs>
<clipPath id="clip0_300_297">
<rect width="21" height="21" fill="white"/>
</clipPath>
</defs>
</svg>
