<svg width="19" height="19" viewBox="0 0 19 19" fill="none" xmlns="http://www.w3.org/2000/svg">
<g clip-path="url(#clip0_300_265)">
<path d="M18.8993 13.87C18.8763 13.8204 18.8548 13.7793 18.8349 13.7463C18.5053 13.1526 17.8753 12.4239 16.9454 11.5599L16.9258 11.5401L16.9159 11.5304L16.906 11.5205H16.896C16.474 11.1182 16.2067 10.8477 16.0948 10.7092C15.8901 10.4454 15.8442 10.1783 15.9561 9.90775C16.0352 9.70332 16.3322 9.27159 16.8464 8.61198C17.1169 8.26241 17.3312 7.98224 17.4894 7.77116C18.6304 6.25423 19.1251 5.28489 18.9733 4.86277L18.9144 4.76412C18.8748 4.70473 18.7726 4.6504 18.6079 4.60085C18.4428 4.55141 18.2318 4.54323 17.9746 4.57618L15.1256 4.59587C15.0794 4.57951 15.0135 4.58104 14.9277 4.60085C14.8419 4.62067 14.799 4.63062 14.799 4.63062L14.7494 4.65539L14.7101 4.68516C14.6771 4.70484 14.6408 4.73945 14.6012 4.78893C14.5618 4.83823 14.5289 4.8961 14.5025 4.96203C14.1924 5.76003 13.8397 6.50197 13.4439 7.18781C13.1999 7.59677 12.9758 7.95119 12.7711 8.25129C12.5667 8.55128 12.3952 8.7723 12.2568 8.91398C12.1182 9.0558 11.9932 9.16941 11.8808 9.25524C11.7687 9.3411 11.6831 9.37738 11.6238 9.36411C11.5643 9.35084 11.5084 9.33767 11.4554 9.3245C11.3631 9.26512 11.2889 9.18435 11.233 9.08213C11.1768 8.97992 11.1389 8.85127 11.1191 8.69628C11.0995 8.5412 11.0878 8.4078 11.0845 8.29564C11.0814 8.18362 11.0828 8.02517 11.0895 7.82074C11.0964 7.61621 11.0995 7.47782 11.0995 7.40527C11.0995 7.15462 11.1044 6.88259 11.1142 6.58911C11.1241 6.29564 11.1322 6.06311 11.139 5.8918C11.1457 5.72033 11.1488 5.5389 11.1488 5.34764C11.1488 5.15638 11.1372 5.00638 11.1142 4.89752C11.0914 4.78879 11.0565 4.68325 11.0106 4.58093C10.9643 4.47872 10.8966 4.39965 10.8078 4.34352C10.7187 4.28746 10.6081 4.24297 10.4764 4.20991C10.1268 4.13081 9.68167 4.08802 9.14076 4.08136C7.91416 4.0682 7.126 4.1474 6.77646 4.31888C6.63797 4.39133 6.51264 4.49032 6.40059 4.61555C6.28185 4.76069 6.26528 4.8399 6.35101 4.85293C6.74677 4.91221 7.02694 5.05403 7.19183 5.27824L7.25125 5.39705C7.29747 5.48277 7.34363 5.63454 7.38981 5.85213C7.43593 6.06973 7.4657 6.31043 7.47879 6.57411C7.51171 7.05562 7.51171 7.46781 7.47879 7.81069C7.44577 8.15372 7.41459 8.42076 7.38482 8.61202C7.35506 8.80328 7.31057 8.95826 7.25125 9.07694C7.19183 9.19564 7.1523 9.2682 7.13248 9.29453C7.11269 9.32087 7.0962 9.33746 7.0831 9.34398C6.99738 9.37682 6.90823 9.39356 6.81596 9.39356C6.72355 9.39356 6.6115 9.34734 6.47962 9.25496C6.34778 9.16259 6.21095 9.03571 6.06914 8.8741C5.92732 8.71247 5.76738 8.48659 5.58925 8.19644C5.41126 7.90629 5.22658 7.56337 5.03532 7.16768L4.87708 6.88072C4.77815 6.69611 4.64302 6.4273 4.47154 6.07454C4.29996 5.72164 4.14831 5.38028 4.01647 5.05053C3.96377 4.91204 3.88459 4.8066 3.77909 4.73405L3.72957 4.70428C3.69666 4.67795 3.64382 4.64999 3.57133 4.62019C3.49874 4.59043 3.423 4.56908 3.34379 4.55595L0.633243 4.57563C0.35626 4.57563 0.168324 4.63838 0.0693671 4.7637L0.0297634 4.82299C0.00997889 4.85601 0 4.90874 0 4.98133C0 5.05389 0.0197845 5.14294 0.0593882 5.24837C0.455079 6.17835 0.885383 7.07524 1.3503 7.93917C1.81522 8.80311 2.21923 9.49903 2.56208 10.0263C2.905 10.554 3.25454 11.052 3.61069 11.5201C3.96685 11.9884 4.2026 12.2885 4.31795 12.4203C4.43343 12.5524 4.52414 12.6511 4.59008 12.7171L4.83744 12.9545C4.99571 13.1128 5.22814 13.3024 5.53482 13.5233C5.84156 13.7443 6.18116 13.9619 6.55377 14.1764C6.92645 14.3906 7.36002 14.5653 7.8547 14.7005C8.34931 14.8358 8.83072 14.8901 9.299 14.8639H10.4367C10.6674 14.844 10.8422 14.7714 10.961 14.6462L11.0004 14.5966C11.0268 14.5572 11.0516 14.4961 11.0745 14.4138C11.0976 14.3314 11.1091 14.2406 11.1091 14.1418C11.1024 13.8582 11.124 13.6027 11.1733 13.3752C11.2226 13.1478 11.2788 12.9763 11.3417 12.8608C11.4045 12.7454 11.4754 12.6481 11.5543 12.5691C11.6333 12.49 11.6897 12.4421 11.7227 12.4256C11.7556 12.409 11.7818 12.3978 11.8016 12.391C11.9599 12.3383 12.1461 12.3893 12.3607 12.5445C12.5751 12.6994 12.7761 12.8908 12.9642 13.1182C13.1522 13.3459 13.378 13.6013 13.6418 13.8848C13.9057 14.1685 14.1364 14.3793 14.3342 14.518L14.532 14.6367C14.6641 14.7159 14.8356 14.7885 15.0466 14.8544C15.2573 14.9203 15.4419 14.9368 15.6005 14.9038L18.1328 14.8643C18.3833 14.8643 18.5782 14.8229 18.7165 14.7406C18.855 14.6581 18.9373 14.5673 18.9638 14.4685C18.9903 14.3697 18.9917 14.2575 18.9689 14.132C18.9454 14.0069 18.9223 13.9194 18.8993 13.87Z" fill="#181818"/>
</g>
<defs>
<clipPath id="clip0_300_265">
<rect width="19" height="19" fill="white"/>
</clipPath>
</defs>
</svg>
